<svg width="155" height="155" viewBox="0 0 155 155" fill="none" xmlns="http://www.w3.org/2000/svg">
<path d="M34.3333 154.5V137.333H68.6667V110.725C61.6569 109.151 55.3983 106.183 49.8906 101.82C44.383 97.4566 40.3417 91.9847 37.7667 85.4042C27.0375 84.1167 18.0608 79.4316 10.8365 71.349C3.61215 63.2663 0 53.7889 0 42.9167V34.3333C0 29.6125 1.6809 25.5712 5.04271 22.2094C8.40451 18.8476 12.4458 17.1667 17.1667 17.1667H34.3333V0H120.167V17.1667H137.333C142.054 17.1667 146.095 18.8476 149.457 22.2094C152.819 25.5712 154.5 29.6125 154.5 34.3333V42.9167C154.5 53.7889 150.888 63.2663 143.664 71.349C136.439 79.4316 127.463 84.1167 116.733 85.4042C114.158 91.9847 110.117 97.4566 104.609 101.82C99.1017 106.183 92.8431 109.151 85.8333 110.725V137.333H120.167V154.5H34.3333ZM34.3333 66.95V34.3333H17.1667V42.9167C17.1667 48.3528 18.7403 53.2524 21.8875 57.6156C25.0347 61.9788 29.1833 65.0903 34.3333 66.95ZM77.25 94.4167C84.4028 94.4167 90.4826 91.9132 95.4896 86.9063C100.497 81.8993 103 75.8194 103 68.6667V17.1667H51.5V68.6667C51.5 75.8194 54.0035 81.8993 59.0104 86.9063C64.0174 91.9132 70.0972 94.4167 77.25 94.4167ZM120.167 66.95C125.317 65.0903 129.465 61.9788 132.613 57.6156C135.76 53.2524 137.333 48.3528 137.333 42.9167V34.3333H120.167V66.95Z" fill="white"/>
<path d="M65.0795 69.25V63.9318L77.5057 52.4261C78.5625 51.4034 79.4489 50.483 80.1648 49.6648C80.892 48.8466 81.4432 48.0455 81.8182 47.2614C82.1932 46.4659 82.3807 45.608 82.3807 44.6875C82.3807 43.6648 82.1477 42.7841 81.6818 42.0455C81.2159 41.2955 80.5795 40.7216 79.7727 40.3239C78.9659 39.9148 78.0511 39.7102 77.0284 39.7102C75.9602 39.7102 75.0284 39.9261 74.233 40.358C73.4375 40.7898 72.8239 41.4091 72.392 42.2159C71.9602 43.0227 71.7443 43.983 71.7443 45.0966H64.7386C64.7386 42.8125 65.2557 40.8295 66.2898 39.1477C67.3239 37.4659 68.7727 36.1648 70.6364 35.2443C72.5 34.3239 74.6477 33.8636 77.0795 33.8636C79.5795 33.8636 81.7557 34.3068 83.608 35.1932C85.4716 36.0682 86.9205 37.2841 87.9545 38.8409C88.9886 40.3977 89.5057 42.1818 89.5057 44.1932C89.5057 45.5114 89.2443 46.8125 88.7216 48.0966C88.2102 49.3807 87.2955 50.8068 85.9773 52.375C84.6591 53.9318 82.8011 55.8011 80.4034 57.983L75.3068 62.9773V63.2159H89.9659V69.25H65.0795Z" fill="white"/>
</svg>
