<svg width="155" height="155" viewBox="0 0 155 155" fill="none" xmlns="http://www.w3.org/2000/svg">
<path d="M34.3333 154.5V137.333H68.6667V110.725C61.6569 109.151 55.3983 106.183 49.8906 101.82C44.383 97.4566 40.3417 91.9847 37.7667 85.4042C27.0375 84.1167 18.0608 79.4316 10.8365 71.349C3.61215 63.2663 0 53.7889 0 42.9167V34.3333C0 29.6125 1.6809 25.5712 5.04271 22.2094C8.40451 18.8476 12.4458 17.1667 17.1667 17.1667H34.3333V0H120.167V17.1667H137.333C142.054 17.1667 146.095 18.8476 149.457 22.2094C152.819 25.5712 154.5 29.6125 154.5 34.3333V42.9167C154.5 53.7889 150.888 63.2663 143.664 71.349C136.439 79.4316 127.463 84.1167 116.733 85.4042C114.158 91.9847 110.117 97.4566 104.609 101.82C99.1017 106.183 92.8431 109.151 85.8333 110.725V137.333H120.167V154.5H34.3333ZM34.3333 66.95V34.3333H17.1667V42.9167C17.1667 48.3528 18.7403 53.2524 21.8875 57.6156C25.0347 61.9788 29.1833 65.0903 34.3333 66.95ZM77.25 94.4167C84.4028 94.4167 90.4826 91.9132 95.4896 86.9063C100.497 81.8993 103 75.8194 103 68.6667V17.1667H51.5V68.6667C51.5 75.8194 54.0035 81.8993 59.0104 86.9063C64.0174 91.9132 70.0972 94.4167 77.25 94.4167ZM120.167 66.95C125.317 65.0903 129.465 61.9788 132.613 57.6156C135.76 53.2524 137.333 48.3528 137.333 42.9167V34.3333H120.167V66.95Z" fill="white"/>
<path d="M76.983 69.7273C74.4375 69.7273 72.1705 69.2898 70.1818 68.4148C68.2045 67.5284 66.642 66.3125 65.4943 64.767C64.358 63.2102 63.7727 61.4148 63.7386 59.3807H71.1705C71.2159 60.233 71.4943 60.983 72.0057 61.6307C72.5284 62.267 73.2216 62.7614 74.0852 63.1136C74.9489 63.4659 75.9205 63.642 77 63.642C78.125 63.642 79.1193 63.4432 79.983 63.0455C80.8466 62.6477 81.5227 62.0966 82.0114 61.392C82.5 60.6875 82.7443 59.875 82.7443 58.9545C82.7443 58.0227 82.483 57.1989 81.9602 56.483C81.4489 55.7557 80.7102 55.1875 79.7443 54.7784C78.7898 54.3693 77.6534 54.1648 76.3352 54.1648H73.0795V48.7443H76.3352C77.4489 48.7443 78.4318 48.5511 79.2841 48.1648C80.1477 47.7784 80.8182 47.2443 81.2955 46.5625C81.7727 45.8693 82.0114 45.0625 82.0114 44.142C82.0114 43.267 81.8011 42.5 81.3807 41.8409C80.9716 41.1705 80.392 40.6477 79.642 40.2727C78.9034 39.8977 78.0398 39.7102 77.0511 39.7102C76.0511 39.7102 75.1364 39.892 74.3068 40.2557C73.4773 40.608 72.8125 41.1136 72.3125 41.7727C71.8125 42.4318 71.5455 43.2045 71.5114 44.0909H64.4375C64.4716 42.0795 65.0455 40.3068 66.1591 38.7727C67.2727 37.2386 68.7727 36.0398 70.6591 35.1761C72.5568 34.3011 74.6989 33.8636 77.0852 33.8636C79.4943 33.8636 81.6023 34.3011 83.4091 35.1761C85.2159 36.0511 86.6193 37.233 87.6193 38.7216C88.6307 40.1989 89.1307 41.858 89.1193 43.6989C89.1307 45.6534 88.5227 47.2841 87.2955 48.5909C86.0795 49.8977 84.4943 50.7273 82.5398 51.0795V51.3523C85.108 51.6818 87.0625 52.5739 88.4034 54.0284C89.7557 55.4716 90.4261 57.2784 90.4148 59.4489C90.4261 61.4375 89.8523 63.2045 88.6932 64.75C87.5455 66.2955 85.9602 67.5114 83.9375 68.3977C81.9148 69.2841 79.5966 69.7273 76.983 69.7273Z" fill="white"/>
</svg>
